<svg width="120" height="40" viewBox="0 0 120 40" fill="none" xmlns="http://www.w3.org/2000/svg">
<g clip-path="url(#clip0_227_706)">
<path fill-rule="evenodd" clip-rule="evenodd" d="M10.0373 25.2763C6.68366 25.2763 3.95522 22.4871 3.95522 19.0588C3.95522 15.6305 6.68366 12.8413 10.0373 12.8413C13.391 12.8413 16.1194 15.6305 16.1194 19.0588C16.1194 22.4871 13.391 25.2763 10.0373 25.2763ZM16.1194 10.9022C14.4305 9.58299 12.322 8.79799 10.0373 8.79799C4.50269 8.79799 0 13.401 0 19.0588C0 24.7166 4.50269 29.3196 10.0373 29.3196C12.322 29.3196 14.4305 28.5346 16.1194 27.2154V28.9001H20.0746V13.1846L16.1194 10.8959V10.9022ZM86.0821 25.2763C82.7284 25.2763 80 22.4871 80 19.0588C80 15.6305 82.7284 12.8413 86.0821 12.8413C89.4357 12.8413 92.1642 15.6305 92.1642 19.0588C92.1642 22.4871 89.4357 25.2763 86.0821 25.2763ZM92.1642 10.9022C90.4753 9.58299 88.3668 8.79799 86.0821 8.79799C80.5475 8.79799 76.0448 13.401 76.0448 19.0588C76.0448 24.7166 80.5475 29.3196 86.0821 29.3196C88.3668 29.3196 90.4753 28.5346 92.1642 27.2154V28.9001H96.1194V13.9475L92.1642 10.8959V10.9022ZM63.9925 25.5052C60.6389 25.5052 57.9104 22.716 57.9104 19.2877C57.9104 15.8593 60.6389 13.0701 63.9925 13.0701C67.3462 13.0701 70.0746 15.8593 70.0746 19.2877C70.0746 22.716 67.3462 25.5052 63.9925 25.5052ZM63.9925 9.02685C69.5271 9.02685 74.0298 13.6299 74.0298 19.2877C74.0298 24.9455 69.5271 29.5485 63.9925 29.5485C58.458 29.5485 53.9552 24.9455 53.9552 19.2877C53.9552 13.6299 58.458 9.02685 63.9925 9.02685ZM119.975 18.3437H120V28.9001H116.045V19.0588C116.045 15.6305 113.316 12.8413 109.963 12.8413C106.932 12.8413 104.413 15.1192 103.955 18.0879V28.9001H99.9251V13.9475L103.88 10.8959V10.9024C105.569 9.58307 107.678 8.79799 109.963 8.79799C115.262 8.79799 119.615 13.0183 119.975 18.3437ZM33.7999 35.814L35.6833 35.8494L33.4238 39.8502L33.2775 39.8474V39.8336C27.9888 39.5551 23.769 35.0723 23.7626 29.5991L23.7469 28.166L23.7313 22.9889V2.68269L27.6866 0V22.9828L27.702 28.1448L27.7178 29.5866C27.7178 33.015 30.4463 35.8041 33.7999 35.8041V35.814ZM41.3806 25.2763C38.0269 25.2763 35.2985 22.4871 35.2985 19.0588C35.2985 15.6305 38.0269 12.8413 41.3806 12.8413C44.7343 12.8413 47.4627 15.6305 47.4627 19.0588C47.4627 22.4871 44.7343 25.2763 41.3806 25.2763ZM47.4939 10.9267C45.7998 9.59268 43.6795 8.79799 41.3806 8.79799C35.846 8.79799 31.3433 13.401 31.3433 19.0588C31.3433 24.7166 35.846 29.3196 41.3806 29.3196C43.674 29.3196 45.7898 28.5286 47.4819 27.2004L47.4786 28.2976L47.4628 29.7163L47.4627 29.7392C47.4627 33.1675 44.7343 35.9567 41.3806 35.9567L40.2207 35.9349L37.9613 39.9356L41.3806 40C46.9111 40 51.4113 35.4038 51.4179 29.7516L51.4336 28.3353L51.4492 23.1354V13.5106L47.4939 10.9168V10.9267Z" fill="#00466B"/>
</g>
<defs>
<clipPath id="clip0_227_706">
<rect width="120" height="40" fill="white"/>
</clipPath>
</defs>
</svg>
