<svg xmlns="http://www.w3.org/2000/svg" xmlns:xlink="http://www.w3.org/1999/xlink" version="1.1" id="Layer_1" x="0px" y="0px" width="100%" viewBox="0 0 599 192" enable-background="new 0 0 599 192" xml:space="preserve">
<path fill="none" opacity="1.000000" stroke="none" d=" M423.000000,193.000000   C282.044403,193.000000 141.588806,193.000000 1.066602,193.000000   C1.066602,129.064682 1.066602,65.129288 1.066602,1.096940   C200.666641,1.096940 400.333313,1.096940 599.972046,1.096940   C599.972046,65.077782 599.972046,129.038895 599.972046,193.000000   C541.129333,193.000000 482.314667,193.000000 423.000000,193.000000  M67.704453,48.908978   C68.659668,51.553200 69.595909,54.204456 70.573082,56.840542   C78.634369,78.587242 86.779716,100.303276 94.715942,122.095482   C96.694237,127.527718 98.097954,133.223846 91.092117,136.661407   C103.901764,136.661407 116.370750,136.661407 127.492233,136.661407   C124.844818,133.203217 120.953018,129.763504 119.144852,125.450317   C113.651672,112.346916 108.957176,98.908409 103.964020,85.595757   C97.688446,68.863983 91.467972,52.111221 85.079254,35.422817   C84.538742,34.010895 82.942947,32.027473 81.778145,31.986303   C73.404411,31.690346 65.015358,31.827896 55.786007,31.827896   C63.104027,36.953938 63.104027,36.953938 67.704453,48.908978  M366.847870,124.500053   C366.847870,105.750801 366.847870,87.001556 366.847870,68.095802   C357.356232,69.235321 348.427429,70.307274 339.498627,71.379227   C345.941162,74.988548 347.147247,80.478935 347.110931,86.911934   C346.978424,110.377357 347.027557,133.844055 347.081329,157.310104   C347.094086,162.864700 347.331665,168.395187 340.174927,171.717865   C351.848907,171.717865 362.230713,171.717865 373.799591,171.717865   C367.379456,168.252258 366.579773,163.255173 366.755890,157.451202   C367.078735,146.809692 366.847870,136.151367 366.847870,124.500053  M224.141342,78.579483   C224.141342,85.241188 224.052078,91.904381 224.163055,98.564240   C224.315399,107.705902 224.255035,116.873505 224.965881,125.976891   C225.616348,134.307098 229.824234,138.650314 237.456268,138.866653   C243.637222,139.041870 249.851715,138.034088 256.051331,137.551041   C245.892715,134.923920 243.765945,132.461227 243.739655,121.936974   C243.701782,106.781723 243.720993,91.626297 243.744812,76.470993   C243.747025,75.060432 243.956970,73.650200 244.109009,71.760696   C251.241516,71.760696 257.931519,71.760696 264.974854,71.760696   C264.517212,70.760643 264.328766,69.976212 264.132690,69.974327   C257.541962,69.910637 250.950546,69.921486 243.765564,69.921486   C243.765564,61.866783 243.765564,54.600143 243.765564,46.755669   C241.025909,51.460957 239.134247,55.805885 236.254211,59.346947   C233.393753,62.863972 229.964508,66.447815 225.994797,68.377075   C222.377899,70.134865 217.701492,69.712631 213.492096,70.251297   C213.583481,70.864403 213.674850,71.477516 213.766235,72.090622   C217.143295,72.090622 220.520355,72.090622 224.141342,72.090622   C224.141342,74.315460 224.141342,75.959915 224.141342,78.579483  M275.168823,76.756828   C268.186493,86.645714 270.131500,95.841156 280.694214,101.634415   C288.666840,106.007103 297.082611,109.630043 304.768005,114.438774   C307.743896,116.300789 310.505341,120.267982 311.165314,123.699127   C312.505096,130.664627 308.868408,135.848633 302.406403,139.393707   C309.725494,137.734024 316.950836,135.946472 323.285858,132.515152   C326.397095,130.829971 328.953369,126.363174 329.844086,122.690361   C331.886566,114.268196 329.360596,109.297310 321.654877,104.941063   C312.722229,99.891190 303.387451,95.545059 294.521240,90.387962   C288.605499,86.947021 287.296570,80.302376 290.841339,74.390083   C292.219299,72.091782 294.311523,70.221733 296.278290,67.922981   C288.257660,68.095001 281.415161,70.766273 275.168823,76.756828  M544.536926,81.513779   C544.536926,77.086151 544.536926,72.658531 544.536926,67.956352   C534.986816,69.161797 526.072937,70.286934 515.693054,71.597122   C523.561096,74.842232 525.183411,80.162560 525.100769,86.649384   C524.941650,99.141342 524.993042,111.637207 525.084167,124.130531   C525.120789,129.150208 524.488892,133.744339 518.903870,136.853943   C529.736755,136.853943 539.708130,136.853943 550.510254,136.853943   C545.653687,134.136475 544.451538,130.482025 544.485962,125.987381   C544.596924,111.495201 544.533264,97.001671 544.536926,81.513779  M169.848541,89.500198   C169.848541,82.402481 169.848541,75.304764 169.848541,67.967545   C160.281860,69.150520 151.310364,70.259903 141.231522,71.506210   C148.873245,74.946434 150.374893,80.555939 150.225021,87.364960   C149.961548,99.333900 150.113495,111.312973 150.168594,123.287445   C150.192322,128.441925 150.127396,133.494690 143.788162,137.181381   C154.380783,137.181381 163.481812,137.184494 172.582840,137.174332   C173.177170,137.173676 173.771393,137.071350 173.422348,137.103668   C172.172501,133.462448 170.045151,129.973145 169.923141,126.415047   C169.513107,114.456612 169.817520,102.473679 169.848541,89.500198  M401.608551,121.688736   C398.975464,130.001724 395.017883,137.064285 383.765320,138.639359   C404.168854,140.820389 418.319183,132.123825 423.328735,115.431297   C425.996918,106.540573 425.327911,97.613968 422.925201,88.818153   C418.074280,71.059952 395.141754,61.690334 379.666870,71.027687   C394.774384,71.757965 401.199738,77.002556 402.598846,92.140289   C403.475525,101.625778 402.194458,111.310692 401.608551,121.688736  M449.043091,131.465485   C462.381256,140.709702 485.869415,142.074356 494.708160,133.910461   C493.334198,134.049484 492.178162,134.098419 491.046600,134.291077   C472.089050,137.518570 460.408112,129.084869 457.928650,110.070335   C456.092682,95.990196 457.732727,82.421906 465.198334,69.892097   C455.420654,69.371964 443.448700,78.742508 438.883789,90.287666   C433.065582,105.002541 436.820190,121.021706 449.043091,131.465485  M507.947632,95.601837   C506.881531,79.034256 491.562653,68.585037 483.206238,69.309608   C485.072815,73.944283 487.704651,78.725235 488.865601,83.840027   C490.100067,89.278641 488.621368,94.501152 482.293457,97.859276   C490.200562,97.859276 497.019745,97.933350 503.834747,97.797279   C505.211426,97.769783 506.572174,96.946869 507.947632,95.601837  M27.514372,133.992523   C28.785849,134.750656 29.979464,135.716110 31.343302,136.228317   C35.551826,137.808868 39.571896,137.276443 42.860573,134.138763   C46.200459,130.952225 47.483101,126.971184 45.994537,122.430977   C44.596600,118.167198 41.691444,115.513718 37.170799,114.848625   C32.491596,114.160202 28.725166,115.656967 26.077993,119.670975   C22.901300,124.487915 23.760853,129.045227 27.514372,133.992523  M283.231354,137.200150   C284.368683,137.429398 285.505981,137.658630 287.161957,137.992432   C286.144867,136.237473 285.506683,135.136230 284.796844,133.911407   C285.609985,133.253723 286.270172,132.780380 286.861023,132.232285   C291.516449,127.913612 291.993347,121.959442 288.042725,117.682495   C284.362579,113.698364 277.756592,113.599258 273.821716,117.469139   C269.945312,121.281525 270.099487,128.143036 274.570068,132.070709   C276.873291,134.094254 279.851074,135.350052 283.231354,137.200150  M189.527512,87.084114   C196.469604,88.290291 201.191208,85.422394 202.124252,79.432854   C203.023773,73.658333 199.126892,68.367233 193.294891,67.881851   C187.322632,67.384811 182.942200,70.763962 178.835403,74.522049   C178.541412,74.791092 178.498016,75.334015 178.320480,75.795349   C179.771225,75.795349 181.059265,75.795349 182.557175,75.795349   C182.921722,80.510284 184.051361,84.752068 189.527512,87.084114  M314.607178,70.429886   C316.419342,72.524033 315.846100,73.724594 313.649200,75.444527   C310.141693,78.190491 309.294189,82.718819 311.422943,86.181816   C313.071716,88.863983 316.700073,90.899323 319.868500,91.926254   C323.451172,93.087463 326.673187,91.003784 328.527557,87.642258   C330.640839,83.811470 330.485779,79.763649 327.742065,76.444603   C324.311615,72.294815 319.941925,69.452133 314.607178,70.429886  M577.171936,75.843063   C576.343872,71.049873 572.902710,68.611725 568.653870,68.044655   C562.459106,67.217850 557.804138,70.588387 553.223572,75.323967   C555.175903,75.513702 556.421692,75.634773 557.587769,75.748100   C558.515869,83.826492 561.696655,87.285805 567.722595,87.123352   C573.452759,86.968872 576.635437,83.461891 577.171936,75.843063  z"/>
<path fill="#030303" opacity="1.000000" stroke="none" d=" M67.512741,48.568832   C63.104027,36.953938 63.104027,36.953938 55.786007,31.827896   C65.015358,31.827896 73.404411,31.690346 81.778145,31.986303   C82.942947,32.027473 84.538742,34.010895 85.079254,35.422817   C91.467972,52.111221 97.688446,68.863983 103.964020,85.595757   C108.957176,98.908409 113.651672,112.346916 119.144852,125.450317   C120.953018,129.763504 124.844818,133.203217 127.492233,136.661407   C116.370750,136.661407 103.901764,136.661407 91.092117,136.661407   C98.097954,133.223846 96.694237,127.527718 94.715942,122.095482   C86.779716,100.303276 78.634369,78.587242 70.573082,56.840542   C69.595909,54.204456 68.659668,51.553200 67.512741,48.568832  z"/>
<path fill="#060606" opacity="1.000000" stroke="none" d=" M366.847870,125.000061   C366.847870,136.151367 367.078735,146.809692 366.755890,157.451202   C366.579773,163.255173 367.379456,168.252258 373.799591,171.717865   C362.230713,171.717865 351.848907,171.717865 340.174927,171.717865   C347.331665,168.395187 347.094086,162.864700 347.081329,157.310104   C347.027557,133.844055 346.978424,110.377357 347.110931,86.911934   C347.147247,80.478935 345.941162,74.988548 339.498627,71.379227   C348.427429,70.307274 357.356232,69.235321 366.847870,68.095802   C366.847870,87.001556 366.847870,105.750801 366.847870,125.000061  z"/>
<path fill="#0A0A0A" opacity="1.000000" stroke="none" d=" M224.141342,78.091927   C224.141342,75.959915 224.141342,74.315460 224.141342,72.090622   C220.520355,72.090622 217.143295,72.090622 213.766235,72.090622   C213.674850,71.477516 213.583481,70.864403 213.492096,70.251297   C217.701492,69.712631 222.377899,70.134865 225.994797,68.377075   C229.964508,66.447815 233.393753,62.863972 236.254211,59.346947   C239.134247,55.805885 241.025909,51.460957 243.765564,46.755669   C243.765564,54.600143 243.765564,61.866783 243.765564,69.921486   C250.950546,69.921486 257.541962,69.910637 264.132690,69.974327   C264.328766,69.976212 264.517212,70.760643 264.974854,71.760696   C257.931519,71.760696 251.241516,71.760696 244.109009,71.760696   C243.956970,73.650200 243.747025,75.060432 243.744812,76.470993   C243.720993,91.626297 243.701782,106.781723 243.739655,121.936974   C243.765945,132.461227 245.892715,134.923920 256.051331,137.551041   C249.851715,138.034088 243.637222,139.041870 237.456268,138.866653   C229.824234,138.650314 225.616348,134.307098 224.965881,125.976891   C224.255035,116.873505 224.315399,107.705902 224.163055,98.564240   C224.052078,91.904381 224.141342,85.241188 224.141342,78.091927  z"/>
<path fill="#060606" opacity="1.000000" stroke="none" d=" M275.406677,76.481628   C281.415161,70.766273 288.257660,68.095001 296.278290,67.922981   C294.311523,70.221733 292.219299,72.091782 290.841339,74.390083   C287.296570,80.302376 288.605499,86.947021 294.521240,90.387962   C303.387451,95.545059 312.722229,99.891190 321.654877,104.941063   C329.360596,109.297310 331.886566,114.268196 329.844086,122.690361   C328.953369,126.363174 326.397095,130.829971 323.285858,132.515152   C316.950836,135.946472 309.725494,137.734024 302.406403,139.393707   C308.868408,135.848633 312.505096,130.664627 311.165314,123.699127   C310.505341,120.267982 307.743896,116.300789 304.768005,114.438774   C297.082611,109.630043 288.666840,106.007103 280.694214,101.634415   C270.131500,95.841156 268.186493,86.645714 275.406677,76.481628  z"/>
<path fill="#080808" opacity="1.000000" stroke="none" d=" M544.536865,82.011223   C544.533264,97.001671 544.596924,111.495201 544.485962,125.987381   C544.451538,130.482025 545.653687,134.136475 550.510254,136.853943   C539.708130,136.853943 529.736755,136.853943 518.903870,136.853943   C524.488892,133.744339 525.120789,129.150208 525.084167,124.130531   C524.993042,111.637207 524.941650,99.141342 525.100769,86.649384   C525.183411,80.162560 523.561096,74.842232 515.693054,71.597122   C526.072937,70.286934 534.986816,69.161797 544.536926,67.956352   C544.536926,72.658531 544.536926,77.086151 544.536865,82.011223  z"/>
<path fill="#070707" opacity="1.000000" stroke="none" d=" M169.848541,90.000153   C169.817520,102.473679 169.513107,114.456612 169.923141,126.415047   C170.045151,129.973145 172.172501,133.462448 173.422348,137.103668   C173.771393,137.071350 173.177170,137.173676 172.582840,137.174332   C163.481812,137.184494 154.380783,137.181381 143.788162,137.181381   C150.127396,133.494690 150.192322,128.441925 150.168594,123.287445   C150.113495,111.312973 149.961548,99.333900 150.225021,87.364960   C150.374893,80.555939 148.873245,74.946434 141.231522,71.506210   C151.310364,70.259903 160.281860,69.150520 169.848541,67.967545   C169.848541,75.304764 169.848541,82.402481 169.848541,90.000153  z"/>
<path fill="#060606" opacity="1.000000" stroke="none" d=" M401.745056,121.297432   C402.194458,111.310692 403.475525,101.625778 402.598846,92.140289   C401.199738,77.002556 394.774384,71.757965 379.666870,71.027687   C395.141754,61.690334 418.074280,71.059952 422.925201,88.818153   C425.327911,97.613968 425.996918,106.540573 423.328735,115.431297   C418.319183,132.123825 404.168854,140.820389 383.765320,138.639359   C395.017883,137.064285 398.975464,130.001724 401.745056,121.297432  z"/>
<path fill="#060606" opacity="1.000000" stroke="none" d=" M448.742920,131.268539   C436.820190,121.021706 433.065582,105.002541 438.883789,90.287666   C443.448700,78.742508 455.420654,69.371964 465.198334,69.892097   C457.732727,82.421906 456.092682,95.990196 457.928650,110.070335   C460.408112,129.084869 472.089050,137.518570 491.046600,134.291077   C492.178162,134.098419 493.334198,134.049484 494.708160,133.910461   C485.869415,142.074356 462.381256,140.709702 448.742920,131.268539  z"/>
<path fill="#0B0B0B" opacity="1.000000" stroke="none" d=" M507.943970,96.046249   C506.572174,96.946869 505.211426,97.769783 503.834747,97.797279   C497.019745,97.933350 490.200562,97.859276 482.293457,97.859276   C488.621368,94.501152 490.100067,89.278641 488.865601,83.840027   C487.704651,78.725235 485.072815,73.944283 483.206238,69.309608   C491.562653,68.585037 506.881531,79.034256 507.943970,96.046249  z"/>
<path fill="#070707" opacity="1.000000" stroke="none" d=" M27.251276,133.717545   C23.760853,129.045227 22.901300,124.487915 26.077993,119.670975   C28.725166,115.656967 32.491596,114.160202 37.170799,114.848625   C41.691444,115.513718 44.596600,118.167198 45.994537,122.430977   C47.483101,126.971184 46.200459,130.952225 42.860573,134.138763   C39.571896,137.276443 35.551826,137.808868 31.343302,136.228317   C29.979464,135.716110 28.785849,134.750656 27.251276,133.717545  z"/>
<path fill="#090909" opacity="1.000000" stroke="none" d=" M282.877686,137.076447   C279.851074,135.350052 276.873291,134.094254 274.570068,132.070709   C270.099487,128.143036 269.945312,121.281525 273.821716,117.469139   C277.756592,113.599258 284.362579,113.698364 288.042725,117.682495   C291.993347,121.959442 291.516449,127.913612 286.861023,132.232285   C286.270172,132.780380 285.609985,133.253723 284.796844,133.911407   C285.506683,135.136230 286.144867,136.237473 287.161957,137.992432   C285.505981,137.658630 284.368683,137.429398 282.877686,137.076447  z"/>
<path fill="#080808" opacity="1.000000" stroke="none" d=" M189.168640,86.963638   C184.051361,84.752068 182.921722,80.510284 182.557175,75.795349   C181.059265,75.795349 179.771225,75.795349 178.320480,75.795349   C178.498016,75.334015 178.541412,74.791092 178.835403,74.522049   C182.942200,70.763962 187.322632,67.384811 193.294891,67.881851   C199.126892,68.367233 203.023773,73.658333 202.124252,79.432854   C201.191208,85.422394 196.469604,88.290291 189.168640,86.963638  z"/>
<path fill="#060606" opacity="1.000000" stroke="none" d=" M314.371338,70.204941   C319.941925,69.452133 324.311615,72.294815 327.742065,76.444603   C330.485779,79.763649 330.640839,83.811470 328.527557,87.642258   C326.673187,91.003784 323.451172,93.087463 319.868500,91.926254   C316.700073,90.899323 313.071716,88.863983 311.422943,86.181816   C309.294189,82.718819 310.141693,78.190491 313.649200,75.444527   C315.846100,73.724594 316.419342,72.524033 314.371338,70.204941  z"/>
<path fill="#060606" opacity="1.000000" stroke="none" d=" M577.189209,76.258186   C576.635437,83.461891 573.452759,86.968872 567.722595,87.123352   C561.696655,87.285805 558.515869,83.826492 557.587769,75.748100   C556.421692,75.634773 555.175903,75.513702 553.223572,75.323967   C557.804138,70.588387 562.459106,67.217850 568.653870,68.044655   C572.902710,68.611725 576.343872,71.049873 577.189209,76.258186  z"/>
</svg>
